<?xml version="1.0" encoding="utf-8"?>
<!-- Generator: Adobe Illustrator 27.4.1, SVG Export Plug-In . SVG Version: 6.00 Build 0)  -->
<svg version="1.1" id="Layer_1" xmlns="http://www.w3.org/2000/svg" xmlns:xlink="http://www.w3.org/1999/xlink" x="0px" y="0px"
	 viewBox="0 0 171.5 158.2" style="enable-background:new 0 0 171.5 158.2;" xml:space="preserve">
<style type="text/css">
	.st0{fill:#DD8F31;}
	.st1{fill:#704006;}
	.st2{fill:#DD8C2C;}
	.st3{fill:none;stroke:#704006;stroke-linecap:round;stroke-linejoin:round;stroke-miterlimit:10;}
</style>
<g>
	<g>
		<g>
			<g>
				<path class="st0" d="M2.6,100.4c10.5,15.1,17.7,14.2,20.2,13.2c1-0.5,1.7-1.4,1.9-2.3c-1.1,0-2.1-0.2-3.1-0.5
					c-1.1-0.3-2.1-0.8-3.2-1.3s-2.1-1-3.2-1.6c-1-0.6-2.1-1.2-3.1-1.8c0,0,0-0.1,0.1-0.1c1.1,0.5,2.2,1,3.3,1.4s2.2,0.9,3.3,1.2
					c1.1,0.4,2.2,0.6,3.3,1.1c0.9,0.4,1.8,0.8,2.7,1.3c0.1-0.7,0-1.4-0.5-2C19.8,103.2,2.8,100.8,2.6,100.4z"/>
				<path class="st0" d="M8.7,116.7c13.5,12.7,20.5,10.2,22.8,8.7c0.9-0.7,1.3-1.8,1.3-2.8c-1.1,0.2-2.1,0.2-3.2,0.2
					c-1.2,0-2.3-0.3-3.4-0.6c-1.1-0.2-2.3-0.5-3.5-0.9c-1.1-0.3-2.3-0.7-3.4-1.1v-0.1c1.2,0.2,2.4,0.5,3.6,0.6
					c1.2,0.2,2.3,0.4,3.5,0.5s2.3,0.1,3.5,0.4c1,0.2,2,0.4,2.9,0.7c-0.1-0.7-0.4-1.4-0.9-1.9C26,115.7,8.9,117.1,8.7,116.7z"/>
				<path class="st0" d="M0,83.3c7.3,17,14.4,17.7,17.1,17.2c1.1-0.2,1.9-1,2.3-1.8c-1-0.3-2-0.7-2.9-1.1c-1-0.5-1.9-1.2-2.9-1.9
					c-0.9-0.7-1.9-1.4-2.8-2.2C10,92.7,9.1,91.9,8.2,91l0.1-0.1c1,0.7,2,1.4,3,2.1s2,1.3,3,1.9s2.1,1.1,3,1.7
					c0.8,0.6,1.6,1.1,2.3,1.8c0.2-0.7,0.3-1.4,0-2.1C16.2,89.7,0,83.7,0,83.3z"/>
				<path class="st0" d="M31.1,144c18.7,6,24.9,0.7,26.1-1.7c0.5-1.1,0.4-2.3-0.2-3.2c-1,0.7-2,1.2-3.1,1.6
					c-1.2,0.5-2.4,0.7-3.6,0.9c-1.2,0.3-2.5,0.5-3.8,0.7s-2.5,0.3-3.8,0.4v-0.1c1.2-0.3,2.5-0.6,3.7-0.9c1.2-0.3,2.4-0.7,3.6-1
					c1.2-0.4,2.3-0.9,3.5-1.2c1.1-0.3,2.2-0.5,3.3-0.6c-0.4-0.6-1.1-1.1-1.8-1.3C46.8,135.7,31.4,144.3,31.1,144z"/>
				<path class="st0" d="M42.8,158.2c28.1,0.2,34.2-9.7,34.8-13.5c0.3-1.7-0.5-3.3-1.6-4.3c-1,1.3-2.2,2.5-3.5,3.5
					c-1.4,1.1-3,1.9-4.6,2.8c-1.6,0.9-3.2,1.7-4.8,2.5c-1.7,0.8-3.3,1.5-5.1,2.2c0-0.1-0.1-0.1-0.1-0.2c1.6-0.9,3.1-1.9,4.7-2.9
					c1.5-1,3-2,4.5-3s2.8-2.2,4.3-3.1c1.4-0.8,2.7-1.6,4.2-2.3c-0.9-0.6-1.9-1-3.1-1C60.6,140,43.4,158.3,42.8,158.2z"/>
				<path class="st0" d="M18.2,131.5c16.2,9.6,22.9,5.7,24.7,3.7c0.8-0.9,0.9-2.1,0.6-3.1c-1,0.4-2.1,0.7-3.2,0.9
					c-1.2,0.2-2.4,0.2-3.6,0.2c-1.2,0-2.4,0-3.7-0.1c-1.2-0.1-2.5-0.2-3.7-0.4v-0.1c1.2,0,2.5-0.1,3.7-0.1c1.2-0.1,2.4-0.1,3.6-0.3
					c1.2-0.1,2.4-0.4,3.6-0.4c1.1,0,2.1-0.1,3.2,0c-0.3-0.7-0.7-1.3-1.4-1.6C35,126.7,18.5,131.8,18.2,131.5z"/>
				<path class="st0" d="M41.4,22.9c0.5,0.9,1.3,1.5,2.2,1.7c0-1.1,0.2-2.1,0.4-3.1c0.3-1.2,0.8-2.4,1.3-3.5c0.5-1.2,1-2.4,1.6-3.5
					c0.6-1.2,1.2-2.3,1.9-3.5h0.1c-0.5,1.2-1,2.5-1.5,3.7s-0.9,2.4-1.3,3.6c-0.4,1.2-0.6,2.4-1.1,3.6c-0.4,1-0.7,1.9-1.1,2.8
					c0.8,0.1,1.6-0.1,2.2-0.7c3.2-2.8,5.1-8.7,6.7-14c1.6-5.3,2.9-10,2.8-10c-9,6.2-12.4,11.5-14,15.3
					C40.4,19.2,40.7,21.4,41.4,22.9z"/>
				<path class="st0" d="M0.8,66c3.8,18.3,10.6,20.4,13.3,20.5c1.1,0,2-0.5,2.6-1.3c-0.9-0.5-1.8-1.1-2.6-1.7
					c-0.9-0.7-1.6-1.6-2.4-2.5c-0.8-0.9-1.5-1.8-2.3-2.7c-0.7-1-1.4-1.9-2.1-3c0,0,0.1,0,0.1-0.1C8.2,76.1,9,77,9.9,77.8
					c0.8,0.9,1.7,1.7,2.5,2.5c0.9,0.8,1.8,1.5,2.6,2.3c0.7,0.7,1.3,1.4,1.9,2.2c0.4-0.6,0.5-1.3,0.4-2C15.4,75.8,0.7,66.4,0.8,66z"
					/>
				<path class="st0" d="M38,8.2c-6.6,7.7-8.5,13.5-9.1,17.4c-0.5,4,0.4,6.1,1.4,7.3c0.7,0.8,1.6,1.2,2.5,1.2
					c-0.2-1-0.3-2.1-0.4-3.1c0-1.2,0.2-2.4,0.3-3.6c0.2-1.2,0.4-2.5,0.6-3.7c0.3-1.2,0.6-2.5,0.9-3.7h0.1c-0.2,1.3-0.3,2.5-0.5,3.8
					c-0.1,1.3-0.2,2.5-0.3,3.7s0,2.5-0.1,3.7c-0.1,1-0.2,2-0.4,2.9c0.7-0.1,1.4-0.5,1.9-1.1C39.2,26.6,37.6,8.4,38,8.2z"/>
				<path class="st0" d="M23.5,19.6C15.4,37.1,20,43,22,44.8c0.8,0.7,1.9,0.8,2.7,0.6c-0.5-0.9-0.8-1.9-1.1-2.9
					c-0.3-1.2-0.4-2.4-0.5-3.6c-0.1-1.2-0.2-2.4-0.2-3.7c0-1.2,0-2.5,0-3.8H23c0.1,1.3,0.3,2.5,0.4,3.7c0.2,1.2,0.4,2.4,0.6,3.6
					c0.2,1.2,0.6,2.4,0.7,3.5c0.1,1,0.2,2,0.3,2.9c0.7-0.2,1.2-0.7,1.5-1.5C29.2,36.9,23.2,19.9,23.5,19.6z"/>
				<path class="st0" d="M12.5,33.4c-3.9,18.5,1.6,23.3,4,24.7c1,0.5,2,0.4,2.8,0c-0.7-0.8-1.2-1.7-1.7-2.6
					c-0.6-1.1-0.9-2.2-1.2-3.3c-0.4-1.1-0.7-2.3-1-3.5s-0.6-2.4-0.8-3.6h0.1c0.4,1.2,0.8,2.4,1.2,3.5c0.4,1.2,0.9,2.3,1.3,3.4
					c0.5,1.1,1,2.2,1.4,3.3c0.3,0.9,0.6,1.9,0.9,2.8c0.6-0.4,1-1,1.2-1.7C21.8,48.9,12.3,33.8,12.5,33.4z"/>
				<path class="st0" d="M4.9,49.1c0,18.8,6.3,22.3,9,23.1c1.1,0.2,2.1-0.1,2.8-0.6c-0.8-0.7-1.5-1.4-2.2-2.2c-0.8-0.9-1.3-2-1.9-3
					c-0.6-1-1.2-2.1-1.7-3.2c-0.5-1.1-1-2.2-1.5-3.4c0,0,0.1,0,0.1-0.1c0.6,1.1,1.3,2.1,1.9,3.1c0.6,1,1.3,2,2,3s1.5,1.9,2.1,2.9
					c0.5,0.8,1,1.7,1.4,2.6c0.5-0.5,0.8-1.2,0.8-1.9C17.2,62,4.8,49.5,4.9,49.1z"/>
			</g>
			<g>
				<path class="st0" d="M37.2,94.8c-1.7,11.6-2.8,17.6-5.3,19.7c-0.8,0.8-1.9,1.1-2.8,0.9c0.4-1,0.7-2,1-3c0.3-1.1,0.5-2.2,0.7-3.3
					c0.2-1.1,0.5-2.1,0.8-3.1s0.6-2,0.9-3h-0.1c-0.5,1-0.9,2-1.4,3c-0.4,1-0.8,2.1-1.2,3.1c-0.4,1.1-0.8,2.2-1,3.3
					c-0.2,1-0.2,2-0.2,3c-0.7-0.2-1.2-0.7-1.5-1.3C23.7,105.7,37.1,94.3,37.2,94.8z"/>
				<path class="st0" d="M41.4,103.6c0.8,11.8,1.3,18-0.8,20.6c-0.6,1-1.6,1.5-2.6,1.5c0.2-1.1,0.2-2.2,0.3-3.2
					c0.1-1.2-0.1-2.3-0.1-3.4s0-2.2,0.1-3.3c0.1-1.1,0.2-2.2,0.3-3.2h-0.1c-0.3,1.1-0.5,2.2-0.7,3.3c-0.2,1.1-0.3,2.2-0.4,3.4
					c-0.1,1.1-0.3,2.3-0.2,3.4c0.1,1,0.2,2,0.5,3c-0.7-0.1-1.3-0.4-1.8-1C30.5,117.3,41.2,103.2,41.4,103.6z"/>
				<path class="st0" d="M34.9,85.3c-4,10.9-6.3,16.4-9.3,17.9c-1,0.6-2,0.7-2.9,0.3c0.6-0.9,1.1-1.8,1.6-2.7c0.6-1,0.9-2,1.4-3
					s1-1.9,1.5-2.9c0.5-0.9,1-1.8,1.5-2.7h-0.1c-0.7,0.8-1.3,1.7-2,2.6c-0.6,0.9-1.2,1.8-1.8,2.8c-0.6,1-1.2,1.9-1.6,3
					c-0.4,0.9-0.6,1.8-0.8,2.8c-0.6-0.3-1.1-0.9-1.2-1.6C19.6,93,34.9,84.9,34.9,85.3z"/>
				<path class="st0" d="M55.6,117.8c6.6,10.7,10.7,16.2,10.1,19.6c-0.1,1.2-0.8,2.1-1.8,2.5c-0.4-1.1-1-2.2-1.5-3.2
					c-0.6-1.1-1.3-2.1-1.9-3.1c-0.6-1-1.1-2.1-1.6-3.1s-1-2.1-1.4-3.1c0,0-0.1,0-0.1,0.1c0.3,1.1,0.6,2.2,1,3.3s0.8,2.2,1.3,3.3
					s1,2.3,1.7,3.3c0.6,0.9,1.3,1.8,2.2,2.6c-0.7,0.2-1.5,0.2-2.3-0.2C51.8,135.3,55.3,117.5,55.6,117.8z"/>
				<path class="st0" d="M47.5,111.4c3.6,11.5,5.8,17.6,4.3,20.6c-0.4,1.1-1.3,1.9-2.3,2.1c-0.1-1.2-0.3-2.2-0.5-3.3
					c-0.2-1.2-0.6-2.2-0.9-3.3c-0.3-1.1-0.5-2.2-0.7-3.3c-0.2-1.1-0.4-2.2-0.5-3.2h-0.1c0,1.1,0,2.2,0.1,3.4
					c0.1,1.1,0.2,2.3,0.4,3.4c0.2,1.1,0.3,2.3,0.7,3.5c0.3,1,0.8,2,1.3,2.9c-0.7,0.1-1.5-0.1-2.1-0.6
					C39.9,127.4,47.3,111.1,47.5,111.4z"/>
				<path class="st0" d="M40.9,32.5c-0.8-0.7-1.1-1.7-1.1-2.6c1,0.3,1.9,0.5,2.9,0.7c1.1,0.2,2.2,0.3,3.3,0.4
					c1.1,0.2,2.2,0.3,3.2,0.6c1.1,0.2,2.1,0.4,3.2,0.7v-0.1c-1-0.4-2.1-0.8-3.1-1.1c-1.1-0.3-2.1-0.6-3.2-0.9
					c-1.1-0.3-2.2-0.6-3.3-0.7c-0.9-0.1-1.9-0.1-2.8,0.1c0.1-0.8,0.6-1.5,1.3-1.9c3.8-2.2,9.3-0.2,13.4,2.5s6.7,6.1,6.8,6.1
					C48.8,35.6,43.2,35,40.9,32.5z"/>
				<path class="st0" d="M34.5,75.6c-6,9.7-9.4,14.6-12.6,15.4c-1,0.4-2.1,0.2-2.8-0.3c0.8-0.7,1.4-1.5,2.1-2.2
					c0.7-0.9,1.3-1.8,1.9-2.6c0.6-0.9,1.3-1.7,2-2.5s1.4-1.6,2-2.3c0,0-0.1,0-0.1-0.1c-0.8,0.7-1.6,1.4-2.4,2.1s-1.6,1.5-2.3,2.3
					c-0.7,0.8-1.6,1.6-2.2,2.5c-0.5,0.8-1,1.6-1.3,2.5c-0.5-0.5-0.9-1.1-0.9-1.8C18,79.8,34.6,75.1,34.5,75.6z"/>
				<path class="st0" d="M52.1,41.5c-11.7,2-17.3,2.6-20.1,0.6c-0.9-0.5-1.5-1.4-1.6-2.3c1,0.1,2,0.1,2.9,0.1c1.1,0,2.2-0.2,3.2-0.3
					c1.1-0.1,2.1-0.1,3.2-0.1c1,0,2.1,0,3.1,0v-0.1c-1.1-0.2-2.1-0.3-3.2-0.5c-1.1-0.1-2.2-0.2-3.3-0.2s-2.2-0.1-3.3,0
					c-0.9,0.1-1.8,0.3-2.7,0.7c0-0.8,0.2-1.5,0.8-2C37.9,31.4,52.5,41.3,52.1,41.5z"/>
				<path class="st0" d="M44.8,48.6c-10.7,4.3-16,6.1-19.1,4.8c-1-0.3-1.7-1.1-2.1-1.9c1-0.1,1.9-0.3,2.9-0.5c1.1-0.2,2-0.7,3.1-0.9
					c1-0.3,2-0.6,3-0.8s2-0.5,3-0.6v-0.1c-1.1,0-2.1,0.1-3.2,0.2c-1.1,0.1-2.1,0.3-3.2,0.5S27,49.6,26,50c-0.8,0.3-1.7,0.7-2.5,1.2
					c-0.2-0.7-0.1-1.5,0.3-2.1C29,41.8,45.2,48.3,44.8,48.6z"/>
				<path class="st0" d="M39.5,56.8c-9.4,6.4-14.3,9.4-17.5,8.8c-1.1-0.1-1.9-0.7-2.4-1.4c1-0.3,1.9-0.7,2.7-1.1
					c1-0.5,1.9-1.1,2.8-1.6s1.8-1,2.8-1.4c0.9-0.5,1.9-0.9,2.8-1.3c0,0,0-0.1-0.1-0.1c-1,0.3-2,0.6-3,0.9c-1,0.4-2,0.7-3,1.2
					c-1,0.4-2,0.8-2.9,1.4c-0.8,0.5-1.5,1.1-2.2,1.7c-0.3-0.6-0.4-1.4-0.1-2.1C22.7,53.6,39.7,56.5,39.5,56.8z"/>
				<path class="st0" d="M36,66c-7.8,8.2-12.1,12.2-15.4,12.3c-1.1,0.1-2-0.2-2.7-0.9c0.9-0.5,1.7-1.1,2.5-1.7
					c0.9-0.7,1.6-1.4,2.4-2.1s1.6-1.4,2.4-2s1.6-1.2,2.5-1.8c0,0-0.1,0-0.1-0.1c-0.9,0.5-1.9,1-2.8,1.5c-0.9,0.6-1.8,1.1-2.7,1.8
					c-0.9,0.6-1.8,1.2-2.6,2c-0.7,0.7-1.3,1.4-1.8,2.2c-0.4-0.6-0.6-1.3-0.5-2C19.1,66.5,36.2,65.6,36,66z"/>
			</g>
			<path class="st0" d="M51.5,23.1c-0.3-0.4-0.4-0.9-0.1-1.5c0.6,0.2,1.2,0.3,1.8,0.4c0.7,0.1,1.5,0.1,2.3,0.2s1.5,0.1,2.3,0.2
				s1.5,0.2,2.3,0.3c0,0,0,0,0-0.1c-0.7-0.2-1.4-0.4-2.1-0.5c-0.7-0.1-1.5-0.3-2.2-0.4s-1.5-0.3-2.2-0.3c-0.6,0-1.3,0-2,0.1
				c0.3-0.4,0.7-0.8,1.3-1.1c6.3-2.5,13.9,3.9,13.7,4C55.9,24.8,52.7,24.5,51.5,23.1z"/>
			<path class="st0" d="M56.6,19.8c-0.7,0.3-1.4,0.3-2,0.2c0.6-0.5,1-1,1.5-1.5c0.6-0.6,1-1.2,1.5-1.9c0.5-0.6,1.1-1.2,1.6-1.8
				s1.1-1.2,1.7-1.8h-0.1c-0.7,0.6-1.4,1.2-2,1.8S57.6,16,57,16.6s-1.2,1.2-1.7,1.8c-0.4,0.5-0.7,1.1-1,1.6c-0.4-0.2-0.7-0.5-0.7-1
				c-0.3-5,13.6-11.6,14-11.3C61.8,16.1,59,18.9,56.6,19.8z"/>
			<path class="st1" d="M67.5,142.7c-0.1,0-0.2,0-0.2,0C33,134.9,18.5,107.8,16.4,85c-2.7-29.2,12.2-55.4,38.1-66.6
				c0.5-0.2,1.1,0,1.4,0.5c0.2,0.5,0,1.1-0.5,1.4C30.3,31.2,15.8,56.5,18.5,84.8c2.1,22.1,16.1,48.3,49.2,55.8
				c0.6,0.1,0.9,0.7,0.8,1.2S68,142.7,67.5,142.7z"/>
		</g>
		<g>
			<g>
				<path class="st0" d="M168.8,100.4c-10.5,15.1-17.7,14.2-20.2,13.2c-1-0.5-1.7-1.4-1.9-2.3c1.1,0,2.1-0.2,3.1-0.5
					c1.1-0.3,2.1-0.8,3.2-1.3c1.1-0.5,2.1-1,3.2-1.6c1-0.6,2.1-1.2,3.1-1.8c0,0,0-0.1-0.1-0.1c-1.1,0.5-2.2,1-3.3,1.4
					s-2.2,0.9-3.3,1.2c-1.1,0.4-2.2,0.6-3.3,1.1c-0.9,0.4-1.8,0.8-2.7,1.3c-0.1-0.7,0-1.4,0.5-2
					C151.7,103.2,168.7,100.8,168.8,100.4z"/>
				<path class="st0" d="M162.8,116.7c-13.5,12.7-20.5,10.2-22.8,8.7c-0.9-0.7-1.3-1.8-1.3-2.8c1.1,0.2,2.1,0.2,3.2,0.2
					c1.2,0,2.3-0.3,3.4-0.6c1.1-0.2,2.3-0.5,3.5-0.9c1.1-0.3,2.3-0.7,3.4-1.1v-0.1c-1.2,0.2-2.4,0.5-3.6,0.6
					c-1.2,0.2-2.3,0.4-3.5,0.5s-2.3,0.1-3.5,0.4c-1,0.2-2,0.4-2.9,0.7c0.1-0.7,0.4-1.4,0.9-1.9C145.4,115.7,162.6,117.1,162.8,116.7
					z"/>
				<path class="st0" d="M171.5,83.3c-7.3,17-14.4,17.7-17.1,17.2c-1.1-0.2-1.9-1-2.3-1.8c1-0.3,2-0.7,2.9-1.1
					c1-0.5,1.9-1.2,2.9-1.9c0.9-0.7,1.9-1.4,2.8-2.2c0.9-0.8,1.8-1.6,2.7-2.4l-0.1-0.1c-1,0.7-2,1.4-3,2.1s-2,1.3-3,1.9
					s-2.1,1.1-3,1.7c-0.8,0.6-1.6,1.1-2.3,1.8c-0.2-0.7-0.3-1.4,0-2.1C155.3,89.7,171.4,83.7,171.5,83.3z"/>
				<path class="st0" d="M140.4,144c-18.7,6-24.9,0.7-26.1-1.7c-0.5-1.1-0.4-2.3,0.2-3.2c1,0.7,2,1.2,3.1,1.6
					c1.2,0.5,2.4,0.7,3.6,0.9c1.2,0.3,2.5,0.5,3.8,0.7s2.5,0.3,3.8,0.4v-0.1c-1.2-0.3-2.5-0.6-3.7-0.9c-1.2-0.3-2.4-0.7-3.6-1
					c-1.2-0.4-2.3-0.9-3.5-1.2c-1.1-0.3-2.2-0.5-3.3-0.6c0.4-0.6,1.1-1.1,1.8-1.3C124.7,135.7,140.1,144.3,140.4,144z"/>
				<path class="st0" d="M128.7,158.2c-28.1,0.2-34.2-9.7-34.8-13.5c-0.3-1.7,0.5-3.3,1.6-4.3c1,1.3,2.2,2.5,3.5,3.5
					c1.4,1.1,3,1.9,4.6,2.8c1.6,0.9,3.2,1.7,4.8,2.5c1.7,0.8,3.3,1.5,5.1,2.2c0-0.1,0.1-0.1,0.1-0.2c-1.6-0.9-3.1-1.9-4.7-2.9
					c-1.5-1-3-2-4.5-3s-2.8-2.2-4.3-3.1c-1.4-0.8-2.7-1.6-4.2-2.3c0.9-0.6,1.9-1,3.1-1C110.9,140,128.1,158.3,128.7,158.2z"/>
				<path class="st0" d="M153.3,131.5c-16.2,9.6-22.9,5.7-24.7,3.7c-0.8-0.9-0.9-2.1-0.6-3.1c1,0.4,2.1,0.7,3.2,0.9
					c1.2,0.2,2.4,0.2,3.6,0.2c1.2,0,2.4,0,3.7-0.1c1.2-0.1,2.5-0.2,3.7-0.4v-0.1c-1.2,0-2.5-0.1-3.7-0.1c-1.2-0.1-2.4-0.1-3.6-0.3
					c-1.2-0.1-2.4-0.4-3.6-0.4c-1.1,0-2.1-0.1-3.2,0c0.3-0.7,0.7-1.3,1.4-1.6C136.4,126.7,153,131.8,153.3,131.5z"/>
				<path class="st0" d="M130.1,22.9c-0.5,0.9-1.3,1.5-2.2,1.7c0-1.1-0.2-2.1-0.4-3.1c-0.3-1.2-0.8-2.4-1.3-3.5
					c-0.5-1.2-1-2.4-1.6-3.5c-0.6-1.2-1.2-2.3-1.9-3.5h-0.1c0.5,1.2,1,2.5,1.5,3.7s0.9,2.4,1.3,3.6c0.4,1.2,0.6,2.4,1.1,3.6
					c0.4,1,0.7,1.9,1.1,2.8c-0.8,0.1-1.6-0.1-2.2-0.7c-3.2-2.8-5.1-8.7-6.7-14s-2.9-10-2.8-10c9,6.2,12.4,11.5,14,15.3
					C131.1,19.2,130.8,21.4,130.1,22.9z"/>
				<path class="st0" d="M170.7,66c-3.8,18.3-10.6,20.4-13.3,20.5c-1.1,0-2-0.5-2.6-1.3c0.9-0.5,1.8-1.1,2.6-1.7
					c0.9-0.7,1.6-1.6,2.4-2.5c0.8-0.9,1.5-1.8,2.3-2.7c0.7-1,1.4-1.9,2.1-3c0,0-0.1,0-0.1-0.1c-0.8,0.9-1.6,1.8-2.5,2.6
					c-0.8,0.9-1.7,1.7-2.5,2.5c-0.9,0.8-1.8,1.5-2.6,2.3c-0.7,0.7-1.3,1.4-1.9,2.2c-0.4-0.6-0.5-1.3-0.4-2
					C156.1,75.8,170.8,66.4,170.7,66z"/>
				<path class="st0" d="M133.5,8.2c6.6,7.7,8.5,13.5,9.1,17.4c0.5,4-0.4,6.1-1.4,7.3c-0.7,0.8-1.6,1.2-2.5,1.2
					c0.2-1,0.3-2.1,0.4-3.1c0-1.2-0.2-2.4-0.3-3.6c-0.2-1.2-0.4-2.5-0.6-3.7c-0.3-1.2-0.6-2.5-0.9-3.7h-0.1c0.2,1.3,0.4,2.5,0.5,3.8
					s0.2,2.5,0.3,3.7s0,2.5,0.1,3.7c0.1,1,0.2,2,0.4,2.9c-0.7-0.1-1.4-0.5-1.9-1.1C132.3,26.6,133.9,8.4,133.5,8.2z"/>
				<path class="st0" d="M147.9,19.6c8.1,17.5,3.5,23.4,1.5,25.3c-0.8,0.7-1.9,0.8-2.7,0.6c0.5-0.9,0.8-1.9,1.1-2.9
					c0.3-1.2,0.4-2.4,0.5-3.6c0.1-1.2,0.2-2.4,0.2-3.7c0-1.2,0-2.5,0-3.8h-0.1c-0.1,1.3-0.3,2.5-0.4,3.7c-0.2,1.2-0.4,2.4-0.6,3.6
					c-0.2,1.2-0.6,2.4-0.7,3.5c-0.1,1-0.2,2-0.3,2.9c-0.7-0.2-1.2-0.7-1.5-1.5C142.3,36.9,148.2,19.9,147.9,19.6z"/>
				<path class="st0" d="M158.9,33.4c3.9,18.5-1.6,23.3-4,24.7c-1,0.5-2,0.4-2.8,0c0.7-0.8,1.2-1.7,1.7-2.6c0.6-1.1,0.9-2.2,1.2-3.3
					c0.4-1.1,0.7-2.3,1-3.5s0.6-2.4,0.8-3.6h-0.1c-0.4,1.2-0.8,2.4-1.2,3.5c-0.4,1.2-0.9,2.3-1.3,3.4c-0.5,1.1-1,2.2-1.4,3.3
					c-0.3,0.9-0.6,1.9-0.9,2.8c-0.6-0.4-1-1-1.2-1.7C149.6,48.9,159.2,33.8,158.9,33.4z"/>
				<path class="st0" d="M166.5,49.1c-0.1,18.8-6.3,22.3-9,23.1c-1.1,0.2-2.1-0.1-2.8-0.6c0.8-0.7,1.5-1.4,2.2-2.2
					c0.8-0.9,1.3-2,1.9-3c0.6-1,1.2-2.1,1.7-3.2c0.5-1.1,1-2.2,1.5-3.4c0,0-0.1,0-0.1-0.1c-0.6,1.1-1.3,2.1-1.9,3.1
					c-0.6,1-1.3,2-2,3s-1.5,1.9-2.1,2.9c-0.5,0.8-1,1.7-1.4,2.6c-0.5-0.5-0.8-1.2-0.8-1.9C154.2,62,166.7,49.5,166.5,49.1z"/>
			</g>
			<g>
				<path class="st0" d="M134.3,94.8c1.7,11.6,2.8,17.6,5.3,19.7c0.8,0.8,1.9,1.1,2.8,0.9c-0.4-1-0.7-2-1-3
					c-0.3-1.1-0.5-2.2-0.7-3.3c-0.2-1.1-0.5-2.1-0.8-3.1s-0.6-2-0.9-3h0.1c0.5,1,0.9,2,1.4,3c0.4,1,0.8,2.1,1.2,3.1
					c0.4,1.1,0.8,2.2,1,3.3c0.2,1,0.2,2,0.2,3c0.7-0.2,1.2-0.7,1.5-1.3C147.8,105.7,134.4,94.3,134.3,94.8z"/>
				<path class="st0" d="M130.1,103.6c-0.8,11.8-1.3,18,0.8,20.6c0.6,1,1.6,1.5,2.6,1.5c-0.2-1.1-0.2-2.2-0.3-3.2
					c-0.1-1.2,0.1-2.3,0.1-3.4s0-2.2-0.1-3.3c-0.1-1.1-0.1-2.2-0.3-3.2h0.1c0.3,1.1,0.5,2.2,0.7,3.3c0.2,1.1,0.3,2.2,0.4,3.4
					c0.1,1.1,0.3,2.3,0.2,3.4c-0.1,1-0.2,2-0.5,3c0.7-0.1,1.3-0.4,1.8-1C141,117.3,130.2,103.2,130.1,103.6z"/>
				<path class="st0" d="M136.6,85.3c4,10.9,6.3,16.4,9.3,17.9c1,0.6,2,0.7,2.9,0.3c-0.6-0.9-1.1-1.8-1.6-2.7c-0.6-1-0.9-2-1.4-3
					s-1-1.9-1.5-2.9c-0.5-0.9-1-1.8-1.5-2.7h0.1c0.7,0.8,1.3,1.7,2,2.6c0.6,0.9,1.2,1.8,1.8,2.8s1.2,1.9,1.6,3
					c0.4,0.9,0.6,1.8,0.8,2.8c0.6-0.3,1.1-0.9,1.2-1.6C151.9,93,136.6,84.9,136.6,85.3z"/>
				<path class="st0" d="M115.9,117.8c-6.6,10.7-10.7,16.2-10.1,19.6c0.1,1.2,0.8,2.1,1.8,2.5c0.4-1.1,1-2.2,1.5-3.2
					c0.6-1.1,1.3-2.1,1.9-3.1s1.1-2.1,1.6-3.1s1-2.1,1.4-3.1c0,0,0.1,0,0.1,0.1c-0.3,1.1-0.6,2.2-1,3.3s-0.8,2.2-1.3,3.3
					s-1,2.3-1.7,3.3c-0.6,0.9-1.3,1.8-2.2,2.6c0.7,0.2,1.5,0.2,2.3-0.2C119.6,135.3,116.2,117.5,115.9,117.8z"/>
				<path class="st0" d="M123.9,111.4c-3.6,11.5-5.8,17.6-4.3,20.6c0.4,1.1,1.3,1.9,2.3,2.1c0.1-1.2,0.3-2.2,0.5-3.3
					c0.2-1.2,0.6-2.2,0.9-3.3c0.3-1.1,0.5-2.2,0.7-3.3c0.2-1.1,0.4-2.2,0.5-3.2h0.1c0,1.1,0,2.2-0.1,3.4c-0.1,1.1-0.2,2.3-0.4,3.4
					c-0.2,1.1-0.3,2.3-0.7,3.5c-0.3,1-0.8,2-1.3,2.9c0.7,0.1,1.5-0.1,2.1-0.6C131.6,127.4,124.2,111.1,123.9,111.4z"/>
				<path class="st0" d="M130.6,32.5c0.8-0.7,1.1-1.7,1.1-2.6c-1,0.3-1.9,0.5-2.9,0.7c-1.1,0.2-2.2,0.3-3.3,0.4
					c-1.1,0.2-2.2,0.3-3.2,0.6c-1.1,0.2-2.1,0.4-3.1,0.7v-0.1c1-0.4,2.1-0.8,3.1-1.1c1.1-0.3,2.1-0.6,3.2-0.9s2.2-0.6,3.3-0.7
					c0.9-0.1,1.9-0.1,2.8,0.1c-0.1-0.8-0.6-1.5-1.3-1.9c-3.8-2.2-9.3-0.2-13.4,2.5s-6.7,6.1-6.8,6.1C122.7,35.6,128.3,35,130.6,32.5
					z"/>
				<path class="st0" d="M137,75.6c6,9.7,9.4,14.6,12.6,15.4c1,0.4,2.1,0.2,2.8-0.3c-0.8-0.7-1.4-1.5-2.1-2.2
					c-0.7-0.9-1.3-1.8-1.9-2.6c-0.6-0.9-1.3-1.7-2-2.5s-1.4-1.6-2-2.3c0,0,0.1,0,0.1-0.1c0.8,0.7,1.6,1.4,2.4,2.1
					c0.8,0.7,1.6,1.5,2.3,2.3s1.6,1.6,2.2,2.5c0.5,0.8,1,1.6,1.3,2.5c0.5-0.5,0.9-1.1,0.9-1.8C153.5,79.8,136.9,75.1,137,75.6z"/>
				<path class="st0" d="M119.4,41.5c11.7,2,17.3,2.6,20.1,0.6c0.9-0.5,1.5-1.4,1.6-2.3c-1,0.1-2,0.1-2.9,0.1
					c-1.1,0-2.2-0.2-3.2-0.3c-1.1-0.1-2.1-0.1-3.2-0.1c-1,0-2.1,0-3.1,0v-0.1c1.1-0.2,2.1-0.3,3.2-0.5c1.1-0.1,2.2-0.2,3.3-0.2
					s2.2-0.1,3.3,0c0.9,0.1,1.8,0.3,2.7,0.7c0-0.8-0.2-1.5-0.8-2C133.6,31.4,118.9,41.3,119.4,41.5z"/>
				<path class="st0" d="M126.6,48.6c10.7,4.3,16,6.1,19.1,4.8c1-0.3,1.7-1.1,2.1-1.9c-1-0.1-1.9-0.3-2.9-0.5
					c-1.1-0.2-2-0.7-3.1-0.9c-1-0.3-2-0.6-3-0.8s-2-0.5-3-0.6v-0.1c1.1,0,2.1,0.1,3.2,0.2c1.1,0.1,2.1,0.3,3.2,0.5
					c1.1,0.2,2.2,0.3,3.2,0.7c0.9,0.3,1.7,0.7,2.5,1.2c0.2-0.7,0.1-1.5-0.3-2.1C142.5,41.8,126.3,48.3,126.6,48.6z"/>
				<path class="st0" d="M132,56.8c9.4,6.4,14.3,9.4,17.5,8.8c1.1-0.1,1.9-0.7,2.4-1.4c-1-0.3-1.9-0.7-2.7-1.1
					c-1-0.5-1.9-1.1-2.8-1.6c-0.9-0.5-1.8-1-2.8-1.4c-0.9-0.5-1.9-0.9-2.8-1.3c0,0,0-0.1,0.1-0.1c1,0.3,2,0.6,3,0.9
					c1,0.4,2,0.7,3,1.2c1,0.4,2,0.8,2.9,1.4c0.8,0.5,1.5,1.1,2.2,1.7c0.3-0.6,0.4-1.4,0.1-2.1C148.7,53.6,131.8,56.5,132,56.8z"/>
				<path class="st0" d="M135.4,66c7.8,8.2,12.1,12.2,15.4,12.3c1.1,0.1,2-0.2,2.7-0.9c-0.9-0.5-1.7-1.1-2.5-1.7
					c-0.9-0.7-1.6-1.4-2.4-2.1c-0.8-0.7-1.6-1.4-2.4-2c-0.8-0.6-1.6-1.2-2.5-1.8c0,0,0.1,0,0.1-0.1c0.9,0.5,1.9,1,2.8,1.5
					c0.9,0.6,1.8,1.1,2.7,1.8c0.9,0.6,1.8,1.2,2.6,2c0.7,0.7,1.3,1.4,1.8,2.2c0.4-0.6,0.6-1.3,0.5-2C152.4,66.5,135.3,65.6,135.4,66
					z"/>
			</g>
			<path class="st0" d="M119.9,23.1c0.3-0.4,0.4-0.9,0.1-1.5c-0.6,0.2-1.2,0.3-1.8,0.4c-0.7,0.1-1.5,0.1-2.3,0.2s-1.5,0.1-2.3,0.2
				s-1.5,0.2-2.3,0.3c0,0,0,0,0-0.1c0.7-0.2,1.4-0.4,2.1-0.5s1.5-0.3,2.2-0.4s1.5-0.3,2.2-0.3c0.6,0,1.3,0,2,0.1
				c-0.3-0.4-0.7-0.8-1.3-1.1c-6.3-2.5-13.9,3.9-13.7,4C115.6,24.8,118.8,24.5,119.9,23.1z"/>
			<path class="st0" d="M114.8,19.8c0.7,0.3,1.4,0.3,2,0.2c-0.6-0.5-1-1-1.5-1.5c-0.6-0.6-1-1.2-1.5-1.9c-0.5-0.6-1.1-1.2-1.6-1.8
				s-1.1-1.2-1.7-1.8h0.1c0.7,0.6,1.4,1.2,2,1.8s1.2,1.2,1.8,1.8c0.6,0.6,1.2,1.2,1.7,1.8c0.4,0.5,0.7,1.1,1,1.6
				c0.4-0.2,0.7-0.5,0.7-1c0.5-4.9-13.4-11.6-13.8-11.2C109.6,16.1,112.5,18.9,114.8,19.8z"/>
			<path class="st1" d="M104,142.7c-0.5,0-0.9-0.3-1-0.8c-0.1-0.6,0.2-1.1,0.8-1.2c33.1-7.5,47.2-33.7,49.2-55.8
				c2.7-28.3-11.8-53.6-36.9-64.5c-0.5-0.2-0.8-0.8-0.5-1.4c0.2-0.5,0.8-0.8,1.4-0.5c25.9,11.2,40.9,37.3,38.1,66.6
				c-2.1,22.8-16.6,49.9-50.9,57.6C104.1,142.7,104.1,142.7,104,142.7z"/>
		</g>
	</g>
	<g>
		<polygon class="st2" points="90.5,106.4 101.3,107.9 93.5,115.5 95.4,126.2 85.7,121.2 76.1,126.2 78,115.5 70.2,107.9 
			80.9,106.4 85.7,96.6 		"/>
		<g>
			<line class="st3" x1="73.6" y1="101.2" x2="56.8" y2="101.2"/>
			<line class="st3" x1="97.8" y1="101.2" x2="114.7" y2="101.2"/>
		</g>
	</g>
</g>
</svg>
